<?xml version="1.0" encoding="utf-8"?>
<!-- Generator: Adobe Illustrator 26.0.0, SVG Export Plug-In . SVG Version: 6.00 Build 0)  -->
<svg version="1.1" id="组_1002" xmlns="http://www.w3.org/2000/svg" xmlns:xlink="http://www.w3.org/1999/xlink" x="0px" y="0px"
	 viewBox="0 0 200 60.8" style="enable-background:new 0 0 200 60.8;" xml:space="preserve">
<style type="text/css">
	.st0{fill:#7F94FF;}
	.st1{opacity:0.1;}
	.st2{clip-path:url(#SVGID_00000007394407005350486470000011392620477794554783_);}
	.st3{fill:#CDD6FF;}
	.st4{opacity:0.8;}
	.st5{clip-path:url(#SVGID_00000013179279132792887250000004629350349561469610_);}
	.st6{clip-path:url(#SVGID_00000182492117140043670150000001830777996179718798_);}
	.st7{clip-path:url(#SVGID_00000080895238269472560900000007489802616010746783_);}
	.st8{clip-path:url(#SVGID_00000037672220956900547580000013855587561424460932_);}
</style>
<g>
	<g id="组_998" transform="translate(0)">
		<rect id="矩形_16" x="11.4" y="1.8" class="st0" width="177.4" height="0.4"/>
		<rect id="矩形_17" x="1.6" y="11.5" class="st0" width="0.4" height="38"/>
		<rect id="矩形_18" x="198.2" y="11.5" class="st0" width="0.4" height="38"/>
		<rect id="矩形_19" x="11.4" y="58.8" class="st0" width="177.4" height="0.4"/>
		<path id="路径_19" class="st0" d="M0,10.3V0h10.3v3.5H3.5v6.9H0z"/>
		<path id="路径_20" class="st0" d="M196.5,10.3V3.5h-6.9V0H200v10.3H196.5z"/>
		<path id="路径_21" class="st0" d="M0,60.8V50.5h3.5v6.9h6.9v3.5L0,60.8z"/>
		<path id="路径_22" class="st0" d="M189.7,60.8v-3.5h6.9v-6.9h3.5v10.3H189.7z"/>
	</g>
	<g id="组_999" transform="translate(6.002 6.366)">
		<g id="组_5" class="st1">
			<g id="组_4">
				<g>
					<defs>
						<rect id="SVGID_1_" x="0" y="0" width="188" height="48.1"/>
					</defs>
					<clipPath id="SVGID_00000169532083040662111920000001254474789416868765_">
						<use xlink:href="#SVGID_1_"  style="overflow:visible;"/>
					</clipPath>
					<g id="组_3" style="clip-path:url(#SVGID_00000169532083040662111920000001254474789416868765_);">
						<rect id="矩形_2" x="0" y="0" class="st3" width="188" height="48.1"/>
					</g>
				</g>
			</g>
		</g>
		<g id="组_27" transform="translate(1.588 1.29)" class="st4">
			<g id="组_26">
				<g>
					<defs>
						<rect id="SVGID_00000000930815997268723160000005689513170180799365_" x="0" y="0" width="3.9" height="3.9"/>
					</defs>
					<clipPath id="SVGID_00000070817975640569506050000017704634884058400408_">
						<use xlink:href="#SVGID_00000000930815997268723160000005689513170180799365_"  style="overflow:visible;"/>
					</clipPath>
					<g id="组_25" style="clip-path:url(#SVGID_00000070817975640569506050000017704634884058400408_);">
						<path id="路径_23" class="st0" d="M3.9,2c0,1.1-0.9,2-2,2S0,3,0,2s0.9-2,2-2S3.9,0.9,3.9,2L3.9,2"/>
					</g>
				</g>
			</g>
		</g>
		<g id="组_30" transform="translate(182.637 1.29)" class="st4">
			<g id="组_29">
				<g>
					<defs>
						<rect id="SVGID_00000005267007039151722800000007441374554098135971_" x="0" y="0" width="3.9" height="3.9"/>
					</defs>
					<clipPath id="SVGID_00000052103576533015116270000005408151389807982465_">
						<use xlink:href="#SVGID_00000005267007039151722800000007441374554098135971_"  style="overflow:visible;"/>
					</clipPath>
					<g id="组_28" style="clip-path:url(#SVGID_00000052103576533015116270000005408151389807982465_);">
						<path id="路径_24" class="st0" d="M3.9,2c0,1.1-0.9,2-2,2C0.9,3.9,0,3,0,2c0-1.1,0.9-2,2-2l0,0C3,0,3.9,0.9,3.9,2"/>
					</g>
				</g>
			</g>
		</g>
		<g id="组_33" transform="translate(1.588 42.996)" class="st4">
			<g id="组_32" transform="translate(0 0)">
				<g>
					<defs>
						<rect id="SVGID_00000111892770175573343610000011181185945528470403_" x="0" y="0" width="3.9" height="3.9"/>
					</defs>
					<clipPath id="SVGID_00000034782862799034532910000007691139699326491580_">
						<use xlink:href="#SVGID_00000111892770175573343610000011181185945528470403_"  style="overflow:visible;"/>
					</clipPath>
					<g id="组_31" style="clip-path:url(#SVGID_00000034782862799034532910000007691139699326491580_);">
						<path id="路径_25" class="st0" d="M3.9,2c0,1.1-0.9,2-2,2S0,3,0,2s0.9-2,2-2S3.9,0.9,3.9,2L3.9,2"/>
					</g>
				</g>
			</g>
		</g>
		<g id="组_36" transform="translate(182.637 42.996)" class="st4">
			<g id="组_35" transform="translate(0 0)">
				<g>
					<defs>
						<rect id="SVGID_00000137812381037950058390000011804890488785690047_" x="0" y="0" width="3.9" height="3.9"/>
					</defs>
					<clipPath id="SVGID_00000060023769548638961180000014477668907992263575_">
						<use xlink:href="#SVGID_00000137812381037950058390000011804890488785690047_"  style="overflow:visible;"/>
					</clipPath>
					<g id="组_34" style="clip-path:url(#SVGID_00000060023769548638961180000014477668907992263575_);">
						<path id="路径_26" class="st0" d="M3.9,2c0,1.1-0.9,2-2,2C0.9,3.9,0,3,0,2c0-1.1,0.9-2,2-2l0,0C3,0,3.9,0.9,3.9,2"/>
					</g>
				</g>
			</g>
		</g>
	</g>
</g>
</svg>
